<mxGraphModel dx="1116" dy="579" grid="1" gridSize="8" guides="1" tooltips="1" connect="1" arrows="1" fold="1" page="1" pageScale="1" pageWidth="1169" pageHeight="827" background="#ffffff"><root><MiscDiagram modelType="MiscDiagram" lastModifiedUserId="dbush@ibm.com" description="" lastModified="2022-01-25T15:43:50Z" _id="miscdiagram_SJRMSpBDt" label="Automation Document Processing on OCP" id="0"><mxCell/></MiscDiagram><mxCell id="1" parent="0"/><UserObject placeholders="1" label="64 Gi RWX Storage" Icon-Name="block-storage--alt" id="miscdiagram_SJRMSpBDt_23dyQ8eQTulz"><mxCell style="shape=mxgraph.ibm2mondrian.base;shapeType=ln;shapeLayout=collapsed;colorFamily=cyan;colorBackground=noColor:noColor;html=1;whiteSpace=wrap;metaEdit=1;strokeWidth=1;collapsible=0;recursiveResize=0;expand=0;fontFamily=IBM Plex Sans;fontColor=#000000;fontSize=14;image=;verticalAlign=top;align=center;spacing=0;spacingLeft=0;spacingRight=0;spacingTop=0;spacingBottom=0;verticalLabelPosition=bottom;labelPosition=center;positionText=bottom;container=1;labelWidth=71;" vertex="1" parent="1"><mxGeometry x="174" y="1057" width="48" height="48" as="geometry"/></mxCell></UserObject><UserObject placeholders="1" label="MongoDB" Icon-Name="default" id="miscdiagram_SJRMSpBDt_33dyQ8eQEKWY"><mxCell style="shape=mxgraph.ibm2mondrian.base;shapeType=pn;shapeLayout=collapsed;colorFamily=cyan;colorBackground=noColor:noColor;html=1;whiteSpace=wrap;metaEdit=1;strokeWidth=1;collapsible=0;recursiveResize=0;expand=0;fontFamily=IBM Plex Sans;fontColor=#000000;fontSize=14;image=;verticalAlign=top;align=center;spacing=0;spacingLeft=0;spacingRight=0;spacingTop=0;spacingBottom=0;verticalLabelPosition=bottom;labelPosition=center;positionText=bottom;container=1" vertex="1" parent="1"><mxGeometry x="103" y="1057" width="48" height="48" as="geometry"/></mxCell></UserObject><UserObject placeholders="1" label="Git Repo" Icon-Name="archive" id="miscdiagram_SJRMSpBDt_43dyQ8eQdAwW"><mxCell style="shape=mxgraph.ibm2mondrian.base;shapeType=ln;shapeLayout=collapsed;colorFamily=cyan;colorBackground=noColor:noColor;html=1;whiteSpace=wrap;metaEdit=1;strokeWidth=1;collapsible=0;recursiveResize=0;expand=0;fontFamily=IBM Plex Sans;fontColor=#000000;fontSize=14;image=;verticalAlign=top;align=center;spacing=0;spacingLeft=0;spacingRight=0;spacingTop=0;spacingBottom=0;verticalLabelPosition=bottom;labelPosition=center;positionText=bottom;container=1" vertex="1" parent="1"><mxGeometry x="43" y="1057" width="48" height="48" as="geometry"/></mxCell></UserObject><mxCell id="miscdiagram_SJRMSpBDt_53dyQ8eQIuOo" style="edgeStyle=orthogonalEdgeStyle;rounded=1;orthogonalLoop=1;jettySize=auto;html=1;jumpStyle=arc;jumpSize=8;entryX=0.1;entryY=1;entryDx=0;entryDy=0;entryPerimeter=0;" edge="1" parent="1" source="miscdiagram_SJRMSpBDt_43dyQ8eQdAwW" target="miscdiagram_SJRMSpBDt_183dyQ8eQNOLR"><mxGeometry relative="1" as="geometry"/></mxCell><mxCell id="miscdiagram_SJRMSpBDt_63dyQ8eQAOOI" style="edgeStyle=orthogonalEdgeStyle;rounded=1;orthogonalLoop=1;jettySize=auto;html=1;jumpStyle=arc;jumpSize=8;entryX=0.4;entryY=1;entryDx=0;entryDy=0;entryPerimeter=0;" edge="1" parent="1" source="miscdiagram_SJRMSpBDt_33dyQ8eQEKWY" target="miscdiagram_SJRMSpBDt_183dyQ8eQNOLR"><mxGeometry relative="1" as="geometry"/></mxCell><mxCell id="miscdiagram_SJRMSpBDt_73dyQ8eQbeFv" style="edgeStyle=orthogonalEdgeStyle;rounded=1;orthogonalLoop=1;jettySize=auto;html=1;jumpStyle=arc;jumpSize=8;entryX=0.75;entryY=1;entryDx=0;entryDy=0;entryPerimeter=0;" edge="1" parent="1" source="miscdiagram_SJRMSpBDt_23dyQ8eQTulz" target="miscdiagram_SJRMSpBDt_183dyQ8eQNOLR"><mxGeometry relative="1" as="geometry"/></mxCell><UserObject placeholders="1" label="64 Gi RWX Storage" Icon-Name="block-storage--alt" _id="userobject_3apRMGWoN5A" id="miscdiagram_SJRMSpBDt_83dyQ8eQoO37"><mxCell style="shape=mxgraph.ibm2mondrian.base;shapeType=ln;shapeLayout=collapsed;colorFamily=cyan;colorBackground=noColor:noColor;html=1;whiteSpace=wrap;metaEdit=1;strokeWidth=1;collapsible=0;recursiveResize=0;expand=0;fontFamily=IBM Plex Sans;fontColor=#000000;fontSize=14;image=;verticalAlign=top;align=center;spacing=0;spacingLeft=0;spacingRight=0;spacingTop=0;spacingBottom=0;verticalLabelPosition=bottom;labelPosition=center;positionText=bottom;container=1;labelWidth=71;" vertex="1" parent="1"><mxGeometry x="422" y="1057" width="48" height="48" as="geometry"/></mxCell></UserObject><UserObject placeholders="1" label="MongoDB" Icon-Name="default" _id="userobject_3apRMGWWkxc" id="miscdiagram_SJRMSpBDt_93dyQ8eQgXHt"><mxCell style="shape=mxgraph.ibm2mondrian.base;shapeType=pn;shapeLayout=collapsed;colorFamily=cyan;colorBackground=noColor:noColor;html=1;whiteSpace=wrap;metaEdit=1;strokeWidth=1;collapsible=0;recursiveResize=0;expand=0;fontFamily=IBM Plex Sans;fontColor=#000000;fontSize=14;image=;verticalAlign=top;align=center;spacing=0;spacingLeft=0;spacingRight=0;spacingTop=0;spacingBottom=0;verticalLabelPosition=bottom;labelPosition=center;positionText=bottom;container=1" vertex="1" parent="1"><mxGeometry x="337" y="1057" width="48" height="48" as="geometry"/></mxCell></UserObject><mxCell id="miscdiagram_SJRMSpBDt_103dyQ8eQmP31" style="edgeStyle=orthogonalEdgeStyle;rounded=1;orthogonalLoop=1;jettySize=auto;html=1;jumpStyle=arc;jumpSize=8;entryX=0.3;entryY=1;entryDx=0;entryDy=0;entryPerimeter=0;" edge="1" parent="1" source="miscdiagram_SJRMSpBDt_93dyQ8eQgXHt" target="miscdiagram_SJRMSpBDt_303dyQ8eQ5Lpj"><mxGeometry relative="1" as="geometry"/></mxCell><mxCell id="miscdiagram_SJRMSpBDt_113dyQ8eQbuem" style="edgeStyle=orthogonalEdgeStyle;rounded=1;orthogonalLoop=1;jettySize=auto;html=1;jumpStyle=arc;jumpSize=8;entryX=0.668;entryY=1.003;entryDx=0;entryDy=0;entryPerimeter=0;" edge="1" parent="1" source="miscdiagram_SJRMSpBDt_83dyQ8eQoO37" target="miscdiagram_SJRMSpBDt_303dyQ8eQ5Lpj"><mxGeometry relative="1" as="geometry"/></mxCell><UserObject placeholders="1" label="64 Gi RWX Storage" Icon-Name="block-storage--alt" _id="userobject_3apSc9KiG1i" id="miscdiagram_SJRMSpBDt_123dyQ8eQMgog"><mxCell style="shape=mxgraph.ibm2mondrian.base;shapeType=ln;shapeLayout=collapsed;colorFamily=cyan;colorBackground=noColor:noColor;html=1;whiteSpace=wrap;metaEdit=1;strokeWidth=1;collapsible=0;recursiveResize=0;expand=0;fontFamily=IBM Plex Sans;fontColor=#000000;fontSize=14;image=;verticalAlign=top;align=center;spacing=0;spacingLeft=0;spacingRight=0;spacingTop=0;spacingBottom=0;verticalLabelPosition=bottom;labelPosition=center;positionText=bottom;container=1;labelWidth=71;" vertex="1" parent="1"><mxGeometry x="713" y="920" width="48" height="48" as="geometry"/></mxCell></UserObject><UserObject placeholders="1" label="MongoDB" Icon-Name="default" _id="userobject_3apSc9Kx78s" id="miscdiagram_SJRMSpBDt_133dyQ8eQyiKo"><mxCell style="shape=mxgraph.ibm2mondrian.base;shapeType=pn;shapeLayout=collapsed;colorFamily=cyan;colorBackground=noColor:noColor;html=1;whiteSpace=wrap;metaEdit=1;strokeWidth=1;collapsible=0;recursiveResize=0;expand=0;fontFamily=IBM Plex Sans;fontColor=#000000;fontSize=14;image=;verticalAlign=top;align=center;spacing=0;spacingLeft=0;spacingRight=0;spacingTop=0;spacingBottom=0;verticalLabelPosition=bottom;labelPosition=center;positionText=bottom;container=1" vertex="1" parent="1"><mxGeometry x="630" y="920" width="48" height="48" as="geometry"/></mxCell></UserObject><mxCell id="miscdiagram_SJRMSpBDt_143dyQ8eQigQQ" style="edgeStyle=orthogonalEdgeStyle;rounded=1;orthogonalLoop=1;jettySize=auto;html=1;jumpStyle=arc;jumpSize=8;entryX=0.3;entryY=1;entryDx=0;entryDy=0;entryPerimeter=0;" edge="1" parent="1" source="miscdiagram_SJRMSpBDt_133dyQ8eQyiKo" target="miscdiagram_SJRMSpBDt_433dyQ8eQ85li"><mxGeometry relative="1" as="geometry"/></mxCell><mxCell id="miscdiagram_SJRMSpBDt_153dyQ8eQfI1h" style="edgeStyle=orthogonalEdgeStyle;rounded=1;orthogonalLoop=1;jettySize=auto;html=1;jumpStyle=arc;jumpSize=8;entryX=0.75;entryY=1;entryDx=0;entryDy=0;entryPerimeter=0;" edge="1" parent="1" source="miscdiagram_SJRMSpBDt_123dyQ8eQMgog" target="miscdiagram_SJRMSpBDt_433dyQ8eQ85li"><mxGeometry relative="1" as="geometry"/></mxCell><UserObject placeholders="1" label="&lt;span style=&quot;font-family: &amp;#34;ibm plex sans&amp;#34;&quot;&gt;OpenShift 4.7-4.8 Non-Prod Cluster&lt;/span&gt;" Icon-Name="logo--openshift" id="miscdiagram_SJRMSpBDt_163dyQ8eQu5H7"><mxCell style="shape=mxgraph.ibm2mondrian.base;shapeType=pg;shapeLayout=expanded;colorFamily=green;colorBackground=noColor:noColor;strokeWidth=1;html=1;whiteSpace=wrap;metaEdit=1;collapsible=0;recursiveResize=0;expand=0;fontFamily=IBM Plex Sans SmBld;fontColor=#000000;fontSize=14;image=;verticalAlign=middle;align=left;spacing=0;spacingLeft=16;spacingRight=16;spacingTop=0;spacingBottom=0;container=1" vertex="1" parent="1"><mxGeometry x="16" y="16" width="524" height="1016" as="geometry"/></mxCell></UserObject><UserObject placeholders="1" label="Dev Namespace" Icon-Name="border--none" id="miscdiagram_SJRMSpBDt_173dyQ8eQpiRh"><mxCell style="shape=mxgraph.ibm2mondrian.base;shapeType=lg;shapeLayout=expanded;colorFamily=green;colorBackground=noColor:noColor;html=1;whiteSpace=wrap;metaEdit=1;strokeWidth=1;collapsible=0;recursiveResize=0;expand=0;fontFamily=IBM Plex Sans;fontColor=#000000;fontSize=14;image=;verticalAlign=middle;align=left;spacing=0;spacingLeft=12;spacingRight=16;spacingTop=0;spacingBottom=0;container=1" vertex="1" parent="miscdiagram_SJRMSpBDt_163dyQ8eQu5H7"><mxGeometry x="16" y="47" width="232" height="944" as="geometry"/></mxCell></UserObject><UserObject placeholders="1" label="&lt;div&gt;&lt;br&gt;&lt;/div&gt;Worker Node" Icon-Name="cloud-services" id="miscdiagram_SJRMSpBDt_183dyQ8eQNOLR"><mxCell style="shape=mxgraph.ibm2mondrian.base;shapeType=lg;shapeLayout=expanded;colorFamily=blue;colorBackground=noColor:noColor;html=1;whiteSpace=wrap;metaEdit=1;strokeWidth=1;collapsible=0;recursiveResize=0;expand=0;fontFamily=IBM Plex Sans;fontColor=#000000;fontSize=14;image=;verticalAlign=middle;align=left;spacing=0;spacingLeft=12;spacingRight=16;spacingTop=0;spacingBottom=0;container=1" vertex="1" parent="miscdiagram_SJRMSpBDt_173dyQ8eQpiRh"><mxGeometry x="16" y="45" width="200" height="875" as="geometry"/></mxCell></UserObject><UserObject placeholders="1" label="Document Processing Designer" Icon-Name="cube" _id="userobject_3667dpUiJf2" id="miscdiagram_SJRMSpBDt_193dyQ8eQT9q7"><mxCell style="shape=mxgraph.ibm2mondrian.base;shapeType=lg;shapeLayout=expanded;colorFamily=green;colorBackground=noColor:noColor;html=1;whiteSpace=wrap;metaEdit=1;strokeWidth=1;collapsible=0;recursiveResize=0;expand=0;fontFamily=IBM Plex Sans;fontColor=#000000;fontSize=14;image=;verticalAlign=middle;align=left;spacing=0;spacingLeft=12;spacingRight=16;spacingTop=0;spacingBottom=0;container=1" vertex="1" parent="miscdiagram_SJRMSpBDt_183dyQ8eQNOLR"><mxGeometry x="20" y="51" width="152" height="64" as="geometry"/></mxCell></UserObject><UserObject placeholders="1" label="Document Processing Deployment" Icon-Name="cube" _id="userobject_3667mdD737Q" id="miscdiagram_SJRMSpBDt_203dyQ8eQCKjT"><mxCell style="shape=mxgraph.ibm2mondrian.base;shapeType=lg;shapeLayout=expanded;colorFamily=green;colorBackground=noColor:noColor;html=1;whiteSpace=wrap;metaEdit=1;strokeWidth=1;collapsible=0;recursiveResize=0;expand=0;fontFamily=IBM Plex Sans;fontColor=#000000;fontSize=14;image=;verticalAlign=middle;align=left;spacing=0;spacingLeft=12;spacingRight=16;spacingTop=0;spacingBottom=0;container=1" vertex="1" parent="miscdiagram_SJRMSpBDt_183dyQ8eQNOLR"><mxGeometry x="20" y="123" width="152" height="64" as="geometry"/></mxCell></UserObject><UserObject placeholders="1" label="Git Common Gateway" Icon-Name="cube" _id="userobject_3667Aq2Y8bL" id="miscdiagram_SJRMSpBDt_213dyQ8eQbRYQ"><mxCell style="shape=mxgraph.ibm2mondrian.base;shapeType=lg;shapeLayout=expanded;colorFamily=green;colorBackground=noColor:noColor;html=1;whiteSpace=wrap;metaEdit=1;strokeWidth=1;collapsible=0;recursiveResize=0;expand=0;fontFamily=IBM Plex Sans;fontColor=#000000;fontSize=14;image=;verticalAlign=middle;align=left;spacing=0;spacingLeft=12;spacingRight=16;spacingTop=0;spacingBottom=0;container=1" vertex="1" parent="miscdiagram_SJRMSpBDt_183dyQ8eQNOLR"><mxGeometry x="20" y="787" width="152" height="64" as="geometry"/></mxCell></UserObject><UserObject placeholders="1" label="Viewer" Icon-Name="cube" _id="userobject_3apN7eYAaAO" id="miscdiagram_SJRMSpBDt_223dyQ8eQWTr5"><mxCell style="shape=mxgraph.ibm2mondrian.base;shapeType=lg;shapeLayout=expanded;colorFamily=green;colorBackground=noColor:noColor;html=1;whiteSpace=wrap;metaEdit=1;strokeWidth=1;collapsible=0;recursiveResize=0;expand=0;fontFamily=IBM Plex Sans;fontColor=#000000;fontSize=14;image=;verticalAlign=middle;align=left;spacing=0;spacingLeft=12;spacingRight=16;spacingTop=0;spacingBottom=0;container=1" vertex="1" parent="miscdiagram_SJRMSpBDt_183dyQ8eQNOLR"><mxGeometry x="20" y="195" width="152" height="64" as="geometry"/></mxCell></UserObject><UserObject placeholders="1" label="Content Analyzer" Icon-Name="cube" _id="userobject_3apNd4qO9rA" id="miscdiagram_SJRMSpBDt_233dyQ8eQE3j8"><mxCell style="shape=mxgraph.ibm2mondrian.base;shapeType=lg;shapeLayout=expanded;colorFamily=green;colorBackground=noColor:noColor;html=1;whiteSpace=wrap;metaEdit=1;strokeWidth=1;collapsible=0;recursiveResize=0;expand=0;fontFamily=IBM Plex Sans;fontColor=#000000;fontSize=14;image=;verticalAlign=middle;align=left;spacing=0;spacingLeft=12;spacingRight=16;spacingTop=0;spacingBottom=0;container=1" vertex="1" parent="miscdiagram_SJRMSpBDt_183dyQ8eQNOLR"><mxGeometry x="20" y="267" width="152" height="64" as="geometry"/></mxCell></UserObject><UserObject placeholders="1" label="Content Platform Engine" Icon-Name="cube" _id="userobject_3apNjEzNnwo" id="miscdiagram_SJRMSpBDt_243dyQ8eQ2AbW"><mxCell style="shape=mxgraph.ibm2mondrian.base;shapeType=lg;shapeLayout=expanded;colorFamily=green;colorBackground=noColor:noColor;html=1;whiteSpace=wrap;metaEdit=1;strokeWidth=1;collapsible=0;recursiveResize=0;expand=0;fontFamily=IBM Plex Sans;fontColor=#000000;fontSize=14;image=;verticalAlign=middle;align=left;spacing=0;spacingLeft=12;spacingRight=16;spacingTop=0;spacingBottom=0;container=1" vertex="1" parent="miscdiagram_SJRMSpBDt_183dyQ8eQNOLR"><mxGeometry x="20" y="339" width="152" height="64" as="geometry"/></mxCell></UserObject><UserObject placeholders="1" label="GraphQL" Icon-Name="cube" _id="userobject_3apNpGCXvwk" id="miscdiagram_SJRMSpBDt_253dyQ8eQVPTH"><mxCell style="shape=mxgraph.ibm2mondrian.base;shapeType=lg;shapeLayout=expanded;colorFamily=green;colorBackground=noColor:noColor;html=1;whiteSpace=wrap;metaEdit=1;strokeWidth=1;collapsible=0;recursiveResize=0;expand=0;fontFamily=IBM Plex Sans;fontColor=#000000;fontSize=14;image=;verticalAlign=middle;align=left;spacing=0;spacingLeft=12;spacingRight=16;spacingTop=0;spacingBottom=0;container=1" vertex="1" parent="miscdiagram_SJRMSpBDt_183dyQ8eQNOLR"><mxGeometry x="20" y="411" width="152" height="64" as="geometry"/></mxCell></UserObject><UserObject placeholders="1" label="External Share (opt)" Icon-Name="cube" _id="userobject_3apNDbg02Tk" id="miscdiagram_SJRMSpBDt_263dyQ8eQOiID"><mxCell style="shape=mxgraph.ibm2mondrian.base;shapeType=lg;shapeLayout=expanded;colorFamily=green;colorBackground=noColor:noColor;html=1;whiteSpace=wrap;metaEdit=1;strokeWidth=1;collapsible=0;recursiveResize=0;expand=0;fontFamily=IBM Plex Sans;fontColor=#000000;fontSize=14;image=;verticalAlign=middle;align=left;spacing=0;spacingLeft=12;spacingRight=16;spacingTop=0;spacingBottom=0;container=1" vertex="1" parent="miscdiagram_SJRMSpBDt_183dyQ8eQNOLR"><mxGeometry x="20" y="483" width="152" height="64" as="geometry"/></mxCell></UserObject><UserObject placeholders="1" label="Content Search Services (opt)" Icon-Name="cube" _id="userobject_3apNN4nt17V" id="miscdiagram_SJRMSpBDt_273dyQ8eQz4eQ"><mxCell style="shape=mxgraph.ibm2mondrian.base;shapeType=lg;shapeLayout=expanded;colorFamily=green;colorBackground=noColor:noColor;html=1;whiteSpace=wrap;metaEdit=1;strokeWidth=1;collapsible=0;recursiveResize=0;expand=0;fontFamily=IBM Plex Sans;fontColor=#000000;fontSize=14;image=;verticalAlign=middle;align=left;spacing=0;spacingLeft=12;spacingRight=16;spacingTop=0;spacingBottom=0;container=1" vertex="1" parent="miscdiagram_SJRMSpBDt_183dyQ8eQNOLR"><mxGeometry x="20" y="555" width="152" height="64" as="geometry"/></mxCell></UserObject><UserObject placeholders="1" label="CMIS (opt)" Icon-Name="cube" _id="userobject_3apO7n0D6iU" id="miscdiagram_SJRMSpBDt_283dyQ8eQOJiT"><mxCell style="shape=mxgraph.ibm2mondrian.base;shapeType=lg;shapeLayout=expanded;colorFamily=green;colorBackground=noColor:noColor;html=1;whiteSpace=wrap;metaEdit=1;strokeWidth=1;collapsible=0;recursiveResize=0;expand=0;fontFamily=IBM Plex Sans;fontColor=#000000;fontSize=14;image=;verticalAlign=middle;align=left;spacing=0;spacingLeft=12;spacingRight=16;spacingTop=0;spacingBottom=0;container=1" vertex="1" parent="miscdiagram_SJRMSpBDt_183dyQ8eQNOLR"><mxGeometry x="20" y="630" width="152" height="64" as="geometry"/></mxCell></UserObject><UserObject placeholders="1" label="Task Manager (opt)" Icon-Name="cube" _id="userobject_3apOczW1pgS" id="miscdiagram_SJRMSpBDt_293dyQ8eQ3k7Z"><mxCell style="shape=mxgraph.ibm2mondrian.base;shapeType=lg;shapeLayout=expanded;colorFamily=green;colorBackground=noColor:noColor;html=1;whiteSpace=wrap;metaEdit=1;strokeWidth=1;collapsible=0;recursiveResize=0;expand=0;fontFamily=IBM Plex Sans;fontColor=#000000;fontSize=14;image=;verticalAlign=middle;align=left;spacing=0;spacingLeft=12;spacingRight=16;spacingTop=0;spacingBottom=0;container=1" vertex="1" parent="miscdiagram_SJRMSpBDt_183dyQ8eQNOLR"><mxGeometry x="20" y="707" width="152" height="64" as="geometry"/></mxCell></UserObject><UserObject placeholders="1" label="Test/QA/Stage Namespace" Icon-Name="border--none" _id="userobject_364sGXJ9f9r" id="miscdiagram_SJRMSpBDt_303dyQ8eQ5Lpj"><mxCell style="shape=mxgraph.ibm2mondrian.base;shapeType=lg;shapeLayout=expanded;colorFamily=green;colorBackground=noColor:noColor;html=1;whiteSpace=wrap;metaEdit=1;strokeWidth=1;collapsible=0;recursiveResize=0;expand=0;fontFamily=IBM Plex Sans;fontColor=#000000;fontSize=14;image=;verticalAlign=middle;align=left;spacing=0;spacingLeft=12;spacingRight=16;spacingTop=0;spacingBottom=0;container=1" vertex="1" parent="miscdiagram_SJRMSpBDt_163dyQ8eQu5H7"><mxGeometry x="276" y="47" width="232" height="792" as="geometry"/></mxCell></UserObject><UserObject placeholders="1" label="&lt;div&gt;&lt;br&gt;&lt;/div&gt;Worker Node" Icon-Name="cloud-services" _id="userobject_364sGXJiiUp" id="miscdiagram_SJRMSpBDt_313dyQ8eQJH4q"><mxCell style="shape=mxgraph.ibm2mondrian.base;shapeType=lg;shapeLayout=expanded;colorFamily=blue;colorBackground=noColor:noColor;html=1;whiteSpace=wrap;metaEdit=1;strokeWidth=1;collapsible=0;recursiveResize=0;expand=0;fontFamily=IBM Plex Sans;fontColor=#000000;fontSize=14;image=;verticalAlign=middle;align=left;spacing=0;spacingLeft=12;spacingRight=16;spacingTop=0;spacingBottom=0;container=1" vertex="1" parent="miscdiagram_SJRMSpBDt_303dyQ8eQ5Lpj"><mxGeometry x="16" y="56" width="184" height="712" as="geometry"/></mxCell></UserObject><UserObject placeholders="1" label="Content Project Deployment" Icon-Name="cube" _id="userobject_3apQcVnC9td" id="miscdiagram_SJRMSpBDt_323dyQ8eQrwTu"><mxCell style="shape=mxgraph.ibm2mondrian.base;shapeType=lg;shapeLayout=expanded;colorFamily=green;colorBackground=noColor:noColor;html=1;whiteSpace=wrap;metaEdit=1;strokeWidth=1;collapsible=0;recursiveResize=0;expand=0;fontFamily=IBM Plex Sans;fontColor=#000000;fontSize=14;image=;verticalAlign=middle;align=left;spacing=0;spacingLeft=12;spacingRight=16;spacingTop=0;spacingBottom=0;container=1" vertex="1" parent="miscdiagram_SJRMSpBDt_313dyQ8eQJH4q"><mxGeometry x="16" y="48" width="152" height="64" as="geometry"/></mxCell></UserObject><UserObject placeholders="1" label="Viewer" Icon-Name="cube" _id="userobject_3apQcVnudOW" id="miscdiagram_SJRMSpBDt_333dyQ8eQ8mIS"><mxCell style="shape=mxgraph.ibm2mondrian.base;shapeType=lg;shapeLayout=expanded;colorFamily=green;colorBackground=noColor:noColor;html=1;whiteSpace=wrap;metaEdit=1;strokeWidth=1;collapsible=0;recursiveResize=0;expand=0;fontFamily=IBM Plex Sans;fontColor=#000000;fontSize=14;image=;verticalAlign=middle;align=left;spacing=0;spacingLeft=12;spacingRight=16;spacingTop=0;spacingBottom=0;container=1" vertex="1" parent="miscdiagram_SJRMSpBDt_313dyQ8eQJH4q"><mxGeometry x="16" y="120" width="152" height="64" as="geometry"/></mxCell></UserObject><UserObject placeholders="1" label="Content Analyzer" Icon-Name="cube" _id="userobject_3apQcVoLvL0" id="miscdiagram_SJRMSpBDt_343dyQ8eQotst"><mxCell style="shape=mxgraph.ibm2mondrian.base;shapeType=lg;shapeLayout=expanded;colorFamily=green;colorBackground=noColor:noColor;html=1;whiteSpace=wrap;metaEdit=1;strokeWidth=1;collapsible=0;recursiveResize=0;expand=0;fontFamily=IBM Plex Sans;fontColor=#000000;fontSize=14;image=;verticalAlign=middle;align=left;spacing=0;spacingLeft=12;spacingRight=16;spacingTop=0;spacingBottom=0;container=1" vertex="1" parent="miscdiagram_SJRMSpBDt_313dyQ8eQJH4q"><mxGeometry x="16" y="192" width="152" height="64" as="geometry"/></mxCell></UserObject><UserObject placeholders="1" label="Content Platform Engine" Icon-Name="cube" _id="userobject_3apQcVomBbM" id="miscdiagram_SJRMSpBDt_353dyQ8eQ6K8t"><mxCell style="shape=mxgraph.ibm2mondrian.base;shapeType=lg;shapeLayout=expanded;colorFamily=green;colorBackground=noColor:noColor;html=1;whiteSpace=wrap;metaEdit=1;strokeWidth=1;collapsible=0;recursiveResize=0;expand=0;fontFamily=IBM Plex Sans;fontColor=#000000;fontSize=14;image=;verticalAlign=middle;align=left;spacing=0;spacingLeft=12;spacingRight=16;spacingTop=0;spacingBottom=0;container=1" vertex="1" parent="miscdiagram_SJRMSpBDt_313dyQ8eQJH4q"><mxGeometry x="16" y="270" width="152" height="64" as="geometry"/></mxCell></UserObject><UserObject placeholders="1" label="GraphQL" Icon-Name="cube" _id="userobject_3apQcVon9XT" id="miscdiagram_SJRMSpBDt_363dyQ8eQAEFn"><mxCell style="shape=mxgraph.ibm2mondrian.base;shapeType=lg;shapeLayout=expanded;colorFamily=green;colorBackground=noColor:noColor;html=1;whiteSpace=wrap;metaEdit=1;strokeWidth=1;collapsible=0;recursiveResize=0;expand=0;fontFamily=IBM Plex Sans;fontColor=#000000;fontSize=14;image=;verticalAlign=middle;align=left;spacing=0;spacingLeft=12;spacingRight=16;spacingTop=0;spacingBottom=0;container=1" vertex="1" parent="miscdiagram_SJRMSpBDt_313dyQ8eQJH4q"><mxGeometry x="16" y="344" width="152" height="64" as="geometry"/></mxCell></UserObject><UserObject placeholders="1" label="External Share (opt)" Icon-Name="cube" _id="userobject_3apQcVoJ0Qn" id="miscdiagram_SJRMSpBDt_373dyQ8eQenhk"><mxCell style="shape=mxgraph.ibm2mondrian.base;shapeType=lg;shapeLayout=expanded;colorFamily=green;colorBackground=noColor:noColor;html=1;whiteSpace=wrap;metaEdit=1;strokeWidth=1;collapsible=0;recursiveResize=0;expand=0;fontFamily=IBM Plex Sans;fontColor=#000000;fontSize=14;image=;verticalAlign=middle;align=left;spacing=0;spacingLeft=12;spacingRight=16;spacingTop=0;spacingBottom=0;container=1" vertex="1" parent="miscdiagram_SJRMSpBDt_313dyQ8eQJH4q"><mxGeometry x="16" y="416" width="152" height="64" as="geometry"/></mxCell></UserObject><UserObject placeholders="1" label="Content Search Services (opt)" Icon-Name="cube" _id="userobject_3apQcVow3PO" id="miscdiagram_SJRMSpBDt_383dyQ8eQVVRo"><mxCell style="shape=mxgraph.ibm2mondrian.base;shapeType=lg;shapeLayout=expanded;colorFamily=green;colorBackground=noColor:noColor;html=1;whiteSpace=wrap;metaEdit=1;strokeWidth=1;collapsible=0;recursiveResize=0;expand=0;fontFamily=IBM Plex Sans;fontColor=#000000;fontSize=14;image=;verticalAlign=middle;align=left;spacing=0;spacingLeft=12;spacingRight=16;spacingTop=0;spacingBottom=0;container=1" vertex="1" parent="miscdiagram_SJRMSpBDt_313dyQ8eQJH4q"><mxGeometry x="16" y="488" width="152" height="64" as="geometry"/></mxCell></UserObject><UserObject placeholders="1" label="CMIS (opt)" Icon-Name="cube" _id="userobject_3apQcVo5M7j" id="miscdiagram_SJRMSpBDt_393dyQ8eQqXN5"><mxCell style="shape=mxgraph.ibm2mondrian.base;shapeType=lg;shapeLayout=expanded;colorFamily=green;colorBackground=noColor:noColor;html=1;whiteSpace=wrap;metaEdit=1;strokeWidth=1;collapsible=0;recursiveResize=0;expand=0;fontFamily=IBM Plex Sans;fontColor=#000000;fontSize=14;image=;verticalAlign=middle;align=left;spacing=0;spacingLeft=12;spacingRight=16;spacingTop=0;spacingBottom=0;container=1" vertex="1" parent="miscdiagram_SJRMSpBDt_313dyQ8eQJH4q"><mxGeometry x="16" y="560" width="152" height="64" as="geometry"/></mxCell></UserObject><UserObject placeholders="1" label="Task Manager (opt)" Icon-Name="cube" _id="userobject_3apQcVo7I2g" id="miscdiagram_SJRMSpBDt_403dyQ8eQWRrk"><mxCell style="shape=mxgraph.ibm2mondrian.base;shapeType=lg;shapeLayout=expanded;colorFamily=green;colorBackground=noColor:noColor;html=1;whiteSpace=wrap;metaEdit=1;strokeWidth=1;collapsible=0;recursiveResize=0;expand=0;fontFamily=IBM Plex Sans;fontColor=#000000;fontSize=14;image=;verticalAlign=middle;align=left;spacing=0;spacingLeft=12;spacingRight=16;spacingTop=0;spacingBottom=0;container=1" vertex="1" parent="miscdiagram_SJRMSpBDt_313dyQ8eQJH4q"><mxGeometry x="16" y="632" width="152" height="64" as="geometry"/></mxCell></UserObject><UserObject placeholders="1" label="&lt;span style=&quot;font-family: &amp;#34;ibm plex sans&amp;#34;&quot;&gt;OpenShift 4.7-4.8 Prod Cluster&lt;/span&gt;" Icon-Name="logo--openshift" _id="userobject_3dwCAeXCcHW" id="miscdiagram_SJRMSpBDt_413dyQ8eQ62re"><mxCell style="shape=mxgraph.ibm2mondrian.base;shapeType=pg;shapeLayout=expanded;colorFamily=green;colorBackground=noColor:noColor;strokeWidth=1;html=1;whiteSpace=wrap;metaEdit=1;collapsible=0;recursiveResize=0;expand=0;fontFamily=IBM Plex Sans SmBld;fontColor=#000000;fontSize=14;image=;verticalAlign=middle;align=left;spacing=0;spacingLeft=16;spacingRight=16;spacingTop=0;spacingBottom=0;container=1" vertex="1" parent="1"><mxGeometry x="560" y="16" width="264" height="864" as="geometry"/></mxCell></UserObject><UserObject placeholders="1" label="Prod Namespace" Icon-Name="border--none" _id="userobject_365Ft8IL3wn" id="miscdiagram_SJRMSpBDt_423dyQ8eQjcnb"><mxCell style="shape=mxgraph.ibm2mondrian.base;shapeType=lg;shapeLayout=expanded;colorFamily=green;colorBackground=noColor:noColor;html=1;whiteSpace=wrap;metaEdit=1;strokeWidth=1;collapsible=0;recursiveResize=0;expand=0;fontFamily=IBM Plex Sans;fontColor=#000000;fontSize=14;image=;verticalAlign=middle;align=left;spacing=0;spacingLeft=12;spacingRight=16;spacingTop=0;spacingBottom=0;container=1" vertex="1" parent="miscdiagram_SJRMSpBDt_413dyQ8eQ62re"><mxGeometry x="22" y="48" width="216" height="792" as="geometry"/></mxCell></UserObject><UserObject placeholders="1" label="&lt;div&gt;&lt;br&gt;&lt;/div&gt;Worker Node" Icon-Name="cloud-services" _id="userobject_3apS309pqmU" id="miscdiagram_SJRMSpBDt_433dyQ8eQ85li"><mxCell style="shape=mxgraph.ibm2mondrian.base;shapeType=lg;shapeLayout=expanded;colorFamily=blue;colorBackground=noColor:noColor;html=1;whiteSpace=wrap;metaEdit=1;strokeWidth=1;collapsible=0;recursiveResize=0;expand=0;fontFamily=IBM Plex Sans;fontColor=#000000;fontSize=14;image=;verticalAlign=middle;align=left;spacing=0;spacingLeft=12;spacingRight=16;spacingTop=0;spacingBottom=0;container=1" vertex="1" parent="miscdiagram_SJRMSpBDt_423dyQ8eQjcnb"><mxGeometry x="16" y="52" width="184" height="712" as="geometry"/></mxCell></UserObject><UserObject placeholders="1" label="Content Project Deployment" Icon-Name="cube" _id="userobject_3apS309Lsbz" id="miscdiagram_SJRMSpBDt_443dyQ8eQN78J"><mxCell style="shape=mxgraph.ibm2mondrian.base;shapeType=lg;shapeLayout=expanded;colorFamily=green;colorBackground=noColor:noColor;html=1;whiteSpace=wrap;metaEdit=1;strokeWidth=1;collapsible=0;recursiveResize=0;expand=0;fontFamily=IBM Plex Sans;fontColor=#000000;fontSize=14;image=;verticalAlign=middle;align=left;spacing=0;spacingLeft=12;spacingRight=16;spacingTop=0;spacingBottom=0;container=1" vertex="1" parent="miscdiagram_SJRMSpBDt_433dyQ8eQ85li"><mxGeometry x="16" y="48" width="152" height="64" as="geometry"/></mxCell></UserObject><UserObject placeholders="1" label="Viewer" Icon-Name="cube" _id="userobject_3apS309089J" id="miscdiagram_SJRMSpBDt_453dyQ8eQnqsw"><mxCell style="shape=mxgraph.ibm2mondrian.base;shapeType=lg;shapeLayout=expanded;colorFamily=green;colorBackground=noColor:noColor;html=1;whiteSpace=wrap;metaEdit=1;strokeWidth=1;collapsible=0;recursiveResize=0;expand=0;fontFamily=IBM Plex Sans;fontColor=#000000;fontSize=14;image=;verticalAlign=middle;align=left;spacing=0;spacingLeft=12;spacingRight=16;spacingTop=0;spacingBottom=0;container=1" vertex="1" parent="miscdiagram_SJRMSpBDt_433dyQ8eQ85li"><mxGeometry x="16" y="120" width="152" height="64" as="geometry"/></mxCell></UserObject><UserObject placeholders="1" label="Content Analyzer" Icon-Name="cube" _id="userobject_3apS309RkQX" id="miscdiagram_SJRMSpBDt_463dyQ8eQjedp"><mxCell style="shape=mxgraph.ibm2mondrian.base;shapeType=lg;shapeLayout=expanded;colorFamily=green;colorBackground=noColor:noColor;html=1;whiteSpace=wrap;metaEdit=1;strokeWidth=1;collapsible=0;recursiveResize=0;expand=0;fontFamily=IBM Plex Sans;fontColor=#000000;fontSize=14;image=;verticalAlign=middle;align=left;spacing=0;spacingLeft=12;spacingRight=16;spacingTop=0;spacingBottom=0;container=1" vertex="1" parent="miscdiagram_SJRMSpBDt_433dyQ8eQ85li"><mxGeometry x="16" y="192" width="152" height="64" as="geometry"/></mxCell></UserObject><UserObject placeholders="1" label="Content Platform Engine" Icon-Name="cube" _id="userobject_3apS30956VR" id="miscdiagram_SJRMSpBDt_473dyQ8eQzqak"><mxCell style="shape=mxgraph.ibm2mondrian.base;shapeType=lg;shapeLayout=expanded;colorFamily=green;colorBackground=noColor:noColor;html=1;whiteSpace=wrap;metaEdit=1;strokeWidth=1;collapsible=0;recursiveResize=0;expand=0;fontFamily=IBM Plex Sans;fontColor=#000000;fontSize=14;image=;verticalAlign=middle;align=left;spacing=0;spacingLeft=12;spacingRight=16;spacingTop=0;spacingBottom=0;container=1" vertex="1" parent="miscdiagram_SJRMSpBDt_433dyQ8eQ85li"><mxGeometry x="16" y="270" width="152" height="64" as="geometry"/></mxCell></UserObject><UserObject placeholders="1" label="GraphQL" Icon-Name="cube" _id="userobject_3apS309bTbl" id="miscdiagram_SJRMSpBDt_483dyQ8eQM2LD"><mxCell style="shape=mxgraph.ibm2mondrian.base;shapeType=lg;shapeLayout=expanded;colorFamily=green;colorBackground=noColor:noColor;html=1;whiteSpace=wrap;metaEdit=1;strokeWidth=1;collapsible=0;recursiveResize=0;expand=0;fontFamily=IBM Plex Sans;fontColor=#000000;fontSize=14;image=;verticalAlign=middle;align=left;spacing=0;spacingLeft=12;spacingRight=16;spacingTop=0;spacingBottom=0;container=1" vertex="1" parent="miscdiagram_SJRMSpBDt_433dyQ8eQ85li"><mxGeometry x="16" y="344" width="152" height="64" as="geometry"/></mxCell></UserObject><UserObject placeholders="1" label="External Share (opt)" Icon-Name="cube" _id="userobject_3apS30aB88y" id="miscdiagram_SJRMSpBDt_493dyQ8eQeAsV"><mxCell style="shape=mxgraph.ibm2mondrian.base;shapeType=lg;shapeLayout=expanded;colorFamily=green;colorBackground=noColor:noColor;html=1;whiteSpace=wrap;metaEdit=1;strokeWidth=1;collapsible=0;recursiveResize=0;expand=0;fontFamily=IBM Plex Sans;fontColor=#000000;fontSize=14;image=;verticalAlign=middle;align=left;spacing=0;spacingLeft=12;spacingRight=16;spacingTop=0;spacingBottom=0;container=1" vertex="1" parent="miscdiagram_SJRMSpBDt_433dyQ8eQ85li"><mxGeometry x="16" y="416" width="152" height="64" as="geometry"/></mxCell></UserObject><UserObject placeholders="1" label="Content Search Services (opt)" Icon-Name="cube" _id="userobject_3apS30abRga" id="miscdiagram_SJRMSpBDt_503dyQ8eQ2CJ9"><mxCell style="shape=mxgraph.ibm2mondrian.base;shapeType=lg;shapeLayout=expanded;colorFamily=green;colorBackground=noColor:noColor;html=1;whiteSpace=wrap;metaEdit=1;strokeWidth=1;collapsible=0;recursiveResize=0;expand=0;fontFamily=IBM Plex Sans;fontColor=#000000;fontSize=14;image=;verticalAlign=middle;align=left;spacing=0;spacingLeft=12;spacingRight=16;spacingTop=0;spacingBottom=0;container=1" vertex="1" parent="miscdiagram_SJRMSpBDt_433dyQ8eQ85li"><mxGeometry x="16" y="488" width="152" height="64" as="geometry"/></mxCell></UserObject><UserObject placeholders="1" label="CMIS (opt)" Icon-Name="cube" _id="userobject_3apS30aYzSy" id="miscdiagram_SJRMSpBDt_513dyQ8eQcYo5"><mxCell style="shape=mxgraph.ibm2mondrian.base;shapeType=lg;shapeLayout=expanded;colorFamily=green;colorBackground=noColor:noColor;html=1;whiteSpace=wrap;metaEdit=1;strokeWidth=1;collapsible=0;recursiveResize=0;expand=0;fontFamily=IBM Plex Sans;fontColor=#000000;fontSize=14;image=;verticalAlign=middle;align=left;spacing=0;spacingLeft=12;spacingRight=16;spacingTop=0;spacingBottom=0;container=1" vertex="1" parent="miscdiagram_SJRMSpBDt_433dyQ8eQ85li"><mxGeometry x="16" y="560" width="152" height="64" as="geometry"/></mxCell></UserObject><UserObject placeholders="1" label="Task Manager (opt)" Icon-Name="cube" _id="userobject_3apS30aGzPr" id="miscdiagram_SJRMSpBDt_523dyQ8eQ7RZ0"><mxCell style="shape=mxgraph.ibm2mondrian.base;shapeType=lg;shapeLayout=expanded;colorFamily=green;colorBackground=noColor:noColor;html=1;whiteSpace=wrap;metaEdit=1;strokeWidth=1;collapsible=0;recursiveResize=0;expand=0;fontFamily=IBM Plex Sans;fontColor=#000000;fontSize=14;image=;verticalAlign=middle;align=left;spacing=0;spacingLeft=12;spacingRight=16;spacingTop=0;spacingBottom=0;container=1" vertex="1" parent="miscdiagram_SJRMSpBDt_433dyQ8eQ85li"><mxGeometry x="16" y="632" width="152" height="64" as="geometry"/></mxCell></UserObject></root></mxGraphModel>